<svg width="113" height="71" viewBox="0 0 113 71" fill="none" xmlns="http://www.w3.org/2000/svg">
<path d="M14.9156 2.94427C13.8636 2.94427 13.0108 3.73731 13.0108 4.71549V18.0587H10.7251V4.71549C10.7251 3.73731 9.87225 2.94427 8.82031 2.94427C7.76838 2.94427 6.91555 3.73731 6.91555 4.71549V18.0587H4.62984V4.71549C4.62984 3.73731 3.77701 2.94427 2.72507 2.94427C1.67314 2.94427 0.820312 3.73731 0.820312 4.71549V21.7192C0.820312 24.7794 3.49765 27.269 6.78857 27.269H6.91555V65.1731C6.91555 66.1512 7.76838 66.9443 8.82031 66.9443C9.87225 66.9443 10.7251 66.1512 10.7251 65.1731V27.269H10.8521C14.143 27.269 16.8203 24.7794 16.8203 21.7192V4.71549C16.8203 3.73731 15.9675 2.94427 14.9156 2.94427ZM13.0108 21.7192C13.0108 22.8261 12.0424 23.7266 10.8521 23.7266H6.78857C5.59822 23.7266 4.62984 22.8261 4.62984 21.7192V21.6011H13.0108V21.7192Z" fill="#D6DB46"/>
<path d="M108.975 2.94427C106.992 2.94427 105.347 4.39785 105.148 6.34218L101.843 42.0015C101.7 43.5503 102.233 45.0969 103.308 46.2449C104.382 47.3929 105.911 48.0513 107.503 48.0513H109.193V65.1731C109.193 66.1512 110.005 66.9443 111.007 66.9443C112.008 66.9443 112.82 66.1512 112.82 65.1731V6.69902C112.82 4.62859 111.096 2.94427 108.975 2.94427ZM109.193 44.5089H107.503C106.919 44.5089 106.38 44.2769 105.986 43.8554C105.591 43.4341 105.403 42.8888 105.456 42.3203L108.759 6.67777C108.77 6.56889 108.863 6.48647 108.976 6.48647C109.096 6.48647 109.193 6.58165 109.193 6.69878V44.5089Z" fill="#D6DB46"/>
<path d="M34.0715 11.1956C40.6822 4.5849 49.4715 0.944275 58.8203 0.944275C68.1691 0.944275 76.9585 4.5849 83.5691 11.1956C90.1797 17.8061 93.8203 26.5954 93.8203 35.9443C93.8203 45.2931 90.1797 54.0824 83.5691 60.693C76.9585 67.3036 68.1691 70.9443 58.8203 70.9443C49.4715 70.9443 40.6822 67.3036 34.0715 60.693C27.4609 54.0824 23.8203 45.2931 23.8203 35.9443C23.8203 26.5954 27.4609 17.8061 34.0715 11.1956ZM58.8203 68.5953C76.8241 68.5953 91.4713 53.9482 91.4713 35.9443C91.4713 17.9403 76.8241 3.29327 58.8203 3.29327C40.8165 3.29327 26.1693 17.9403 26.1693 35.9443C26.1693 53.9482 40.8165 68.5953 58.8203 68.5953Z" fill="#D6DB46"/>
<path d="M47.79 22.6627C47.5648 22.8504 47.2694 22.9443 46.9741 22.9443C46.6789 22.9443 46.3835 22.8504 46.1583 22.6627C45.7077 22.2871 45.7077 21.6783 46.1583 21.3028L49.8506 18.2258C50.3013 17.8504 51.0319 17.8504 51.4823 18.2258C51.933 18.6015 51.933 19.2102 51.4823 19.5857L47.79 22.6627Z" fill="#D6DB46"/>
<path d="M46.1402 31.9554L58.9558 18.2854C59.3824 17.8306 60.074 17.8306 60.5004 18.2854C60.927 18.7406 60.927 19.4781 60.5004 19.9331L47.6848 33.6031C47.4716 33.8306 47.192 33.9443 46.9125 33.9443C46.633 33.9443 46.3534 33.8306 46.1402 33.6031C45.7137 33.148 45.7137 32.4104 46.1402 31.9554Z" fill="#D6DB46"/>
<path d="M63.9277 21.2689C64.3607 20.8361 65.0627 20.8361 65.4956 21.2689C65.9286 21.702 65.9286 22.4039 65.4956 22.8369L50.7129 37.6196C50.4965 37.8361 50.2127 37.9443 49.929 37.9443C49.6453 37.9443 49.3615 37.8361 49.1451 37.6196C48.7121 37.1865 48.7121 36.4846 49.1451 36.0516L63.9277 21.2689Z" fill="#D6DB46"/>
<path d="M66.9277 26.2689C67.3607 25.8361 68.0627 25.8361 68.4956 26.2689C68.9286 26.702 68.9286 27.4039 68.4956 27.8369L53.7129 42.6196C53.4965 42.8361 53.2127 42.9443 52.929 42.9443C52.6453 42.9443 52.3615 42.8361 52.1451 42.6196C51.7121 42.1865 51.7121 41.4846 52.1451 41.0516L66.9277 26.2689Z" fill="#D6DB46"/>
<path d="M66.8595 31.3004C67.3081 30.8256 68.0354 30.8256 68.4839 31.3004C68.9325 31.7755 68.9325 32.5455 68.4839 33.0205L53.7811 48.5882C53.5569 48.8256 53.2628 48.9443 52.9689 48.9443C52.675 48.9443 52.381 48.8256 52.1568 48.5882C51.7082 48.113 51.7082 47.3431 52.1568 46.8681L66.8595 31.3004Z" fill="#D6DB46"/>
<path d="M66.71 38.258C67.1928 37.8397 67.9756 37.8397 68.4582 38.258C68.941 38.6766 68.941 39.3549 68.4582 39.7733L55.9307 50.6306C55.6893 50.8397 55.3729 50.9443 55.0565 50.9443C54.7402 50.9443 54.4237 50.8397 54.1824 50.6306C53.6996 50.212 53.6996 49.5337 54.1824 49.1153L66.71 38.258Z" fill="#D6DB46"/>
<path d="M66.9581 46.2637C67.3841 45.8378 68.0749 45.8378 68.5008 46.2637C68.9268 46.6899 68.9268 47.3805 68.5008 47.8066L62.6825 53.6249C62.4696 53.8378 62.1903 53.9443 61.9112 53.9443C61.6321 53.9443 61.3528 53.8378 61.1398 53.6249C60.7138 53.1987 60.7138 52.508 61.1398 52.082L66.9581 46.2637Z" fill="#D6DB46"/>
<path d="M38.46 36.0255C38.7019 36.0255 38.9394 36.0438 39.1714 36.0789C38.0201 33.2312 37.6157 30.1183 38.0238 26.957C39.0928 18.677 46.0265 11.9915 54.5106 11.0604C59.8693 10.4726 65.2292 12.1344 69.2153 15.6203C72.1359 18.1747 74.1431 21.5396 75.0098 25.2116C76.3968 24.9847 77.8438 25.0568 79.2556 25.4313C82.3624 26.2553 84.791 28.3888 85.7522 31.1385C85.9194 31.6166 85.7726 32.1461 85.3813 32.4762C84.3447 33.3507 83.1066 33.9565 81.7693 34.277C81.8663 34.3649 81.964 34.4521 82.0582 34.5442C84.3343 36.7706 85.3562 39.803 84.7917 42.656C84.6935 43.1521 84.2968 43.54 83.7898 43.6359C83.2609 43.7359 82.7259 43.7851 82.1909 43.7851C79.7758 43.7851 77.36 42.7845 75.4969 40.9621C75.4955 40.9608 75.4943 40.9595 75.4931 40.9582V46.5048C75.4931 50.2849 74.0098 53.8591 71.3166 56.5692C68.629 59.2735 65.0295 60.825 61.1813 60.9382C61.04 60.9421 60.8992 60.9443 60.7579 60.9443C57.521 60.9443 54.3222 59.8556 51.7074 57.8561C49.2423 55.9706 47.444 53.387 46.5691 50.5092C45.6489 51.2546 44.4691 51.7032 43.184 51.7032C40.2536 51.7032 37.8695 49.3712 37.8695 46.5048C37.8695 46.0125 37.9413 45.5365 38.0726 45.085C35.6951 44.8918 33.8203 42.9383 33.8203 40.5637C33.8203 38.0614 35.9016 36.0255 38.46 36.0255ZM75.4926 36.4075C75.8476 37.4394 76.4629 38.4063 77.2861 39.2117C78.7033 40.5977 80.5974 41.3547 82.4066 41.3031C82.4622 39.5345 81.6858 37.6809 80.2684 36.2943C78.9278 34.983 77.2022 34.2408 75.4926 34.2019V36.4075ZM75.4928 29.3418V30.9599C76.1034 31.3286 76.7722 31.6118 77.4894 31.8022C79.4242 32.3148 81.4542 32.0522 82.995 31.1251C82.1442 29.5638 80.5279 28.3333 78.5933 27.8201C77.5295 27.5382 76.4452 27.4866 75.412 27.6579C75.4646 28.2155 75.4928 28.7772 75.4928 29.3418ZM46.0234 42.1142C47.5095 43.0367 48.4985 44.6594 48.4985 46.5048C48.4985 46.8503 48.463 47.1878 48.3969 47.5147C48.5342 47.9884 48.6604 48.4699 48.7671 48.9513L48.7942 49.07C50.08 54.5938 55.3721 58.6403 61.105 58.4637C64.2927 58.3702 67.2745 57.0846 69.5017 54.8437C71.7332 52.5984 72.9621 49.6368 72.9621 46.5048V36.6311C72.9617 36.6148 72.9617 36.5986 72.9621 36.5823V31.688C72.959 31.6393 72.9592 31.5905 72.9621 31.5416V29.3418C72.9621 24.8142 70.9815 20.4857 67.5283 17.4657C64.0278 14.4044 59.5046 13.0033 54.7927 13.5204C47.4553 14.3257 41.4589 20.107 40.5345 27.2671C39.9632 31.6915 41.2245 36.0043 44.0856 39.4117C44.7849 40.2441 45.4272 41.1356 45.9949 42.0617C46.0056 42.0789 46.014 42.0967 46.0234 42.1142ZM43.184 49.2277C44.7189 49.2277 45.9678 48.0062 45.9678 46.5048C45.9678 45.0033 44.7189 43.7818 43.184 43.7818C41.649 43.7818 40.4002 45.0033 40.4002 46.5048C40.4002 48.0062 41.649 49.2277 43.184 49.2277ZM38.46 42.6266C39.6229 42.6266 40.5689 41.7013 40.5689 40.5637C40.5689 39.4262 39.6229 38.5009 38.46 38.5009C37.297 38.5009 36.351 39.4262 36.351 40.5637C36.351 41.7013 37.297 42.6266 38.46 42.6266Z" fill="#D6DB46"/>
<path d="M44.5849 51.7468C44.7459 51.0299 45.1375 50.7395 45.4597 51.0977C45.7818 51.4563 45.9124 52.328 45.7513 53.0452L45.0558 56.1417C44.9415 56.6503 44.7113 56.9443 44.472 56.9443C44.374 56.9443 44.2746 56.8947 44.1809 56.7906C43.8588 56.432 43.7282 55.5603 43.8893 54.8431L44.5849 51.7468Z" fill="#D6DB46"/>
<path d="M75.3243 50.9443C76.1505 50.9443 76.8203 51.6157 76.8203 52.4443C76.8203 53.2729 76.1505 53.9443 75.3243 53.9443H75.3083C74.4821 53.9443 73.8203 53.2729 73.8203 52.4443C73.8203 51.6157 74.4981 50.9443 75.3243 50.9443Z" fill="#D6DB46"/>
<path d="M35.5937 31.2307C36.1031 30.8488 36.929 30.8488 37.4383 31.2307C37.9477 31.6129 37.9477 32.2322 37.4383 32.6143L36.0469 33.6578C35.7923 33.8488 35.4584 33.9443 35.1246 33.9443C34.7909 33.9443 34.457 33.8488 34.2024 33.6578C33.693 33.2756 33.693 32.6563 34.2024 32.2742L35.5937 31.2307Z" fill="#D6DB46"/>
<path d="M32.823 28.9443C33.3738 28.9443 33.8203 29.3919 33.8203 29.9443C33.8203 30.4967 33.3738 30.9443 32.823 30.9443H32.8123C32.2615 30.9443 31.8203 30.4967 31.8203 29.9443C31.8203 29.3919 32.2722 28.9443 32.823 28.9443Z" fill="#D6DB46"/>
<path d="M35.8203 28.9443C34.7158 28.9443 33.8203 28.5064 33.8203 27.966V26.9225C33.8203 26.3821 34.7158 25.9443 35.8203 25.9443C36.9248 25.9443 37.8203 26.3821 37.8203 26.9225V27.966C37.8203 28.5064 36.9248 28.9443 35.8203 28.9443Z" fill="#D6DB46"/>
<path d="M77.3612 46.0211C77.8442 45.8417 78.4318 45.9872 78.6735 46.3456L79.7168 47.8938C79.9585 48.2523 79.7626 48.6882 79.2794 48.8675C79.1389 48.9196 78.9897 48.9443 78.8428 48.9443C78.484 48.9443 78.1385 48.7972 77.9671 48.543L76.9238 46.9949C76.6822 46.6362 76.8781 46.2004 77.3612 46.0211Z" fill="#D6DB46"/>
<path d="M77.5266 20.1417C77.1839 20.6503 76.4932 20.9443 75.7754 20.9443C75.4815 20.9443 75.1831 20.8947 74.9022 20.7906C73.9358 20.432 73.544 19.5604 74.0273 18.8432L76.114 15.7468C76.597 15.0298 77.7721 14.7395 78.7385 15.0977C79.7048 15.4563 80.0966 16.3279 79.6133 17.0451L77.5266 20.1417Z" fill="#D6DB46"/>
</svg>
