<svg width="116" height="80" viewBox="0 0 116 80" fill="none" xmlns="http://www.w3.org/2000/svg">
<path d="M102.035 52.4552C100.482 52.4552 98.9888 52.7165 97.5944 53.1913L95.6956 49.4045C97.6806 48.6558 99.8197 48.2452 102.035 48.2452C104.538 48.2452 106.96 48.7467 109.233 49.7363C110.175 50.1459 111.274 49.717 111.685 48.7772C112.097 47.8368 111.666 46.742 110.723 46.3316C107.977 45.1365 105.054 44.5305 102.035 44.5305C99.2268 44.5305 96.5194 45.0765 94.0232 46.0696L87.122 32.3078C87.4483 32.3645 87.7834 32.3957 88.1259 32.3957H92.1C93.1288 32.3957 93.9629 31.5643 93.9629 30.5383V22.6136C93.9629 21.5875 93.1288 20.7562 92.1 20.7562H88.1259C85.8592 20.7562 83.8915 22.0519 82.9251 23.939L80.9552 20.0108C79.9602 18.0264 77.9595 16.7938 75.7345 16.7938H72.2296C71.2008 16.7938 70.3667 17.6252 70.3667 18.6512C70.3667 19.6772 71.2008 20.5085 72.2296 20.5085H75.7345C76.5392 20.5085 77.263 20.9546 77.6229 21.6722L82.4475 31.2927L81.5416 31.7444C79.5513 32.7365 78.3149 34.731 78.3149 36.9497V56.4176H62.2944C58.939 56.4176 56.2091 53.696 56.2091 50.3502V42.3016H56.3333C59.5518 42.3016 62.1702 39.6909 62.1702 36.4819C62.1702 33.2729 59.5518 30.6621 56.3333 30.6621H40.4369C38.8411 30.6621 37.3935 31.3045 36.3387 32.3429V4.78283C36.3387 2.66618 34.6117 0.944275 32.4888 0.944275H4.6702C2.5473 0.944275 0.820312 2.66618 0.820312 4.78283V32.5195C0.820312 34.6362 2.5473 36.3581 4.6702 36.3581H8.85144C8.76351 36.7387 8.71557 37.131 8.72203 37.5319C8.76376 40.162 10.9438 42.3016 13.5818 42.3016H23.597C22.3375 43.1035 21.2585 43.9522 20.3606 44.7568C16.2333 48.455 14.0277 52.8616 13.3399 55.7524C12.9691 57.3114 13.325 58.9211 14.3168 60.1695C15.2949 61.4011 16.7601 62.1064 18.3378 62.1064C18.3413 62.1064 18.3445 62.1064 18.348 62.1064L19.3296 62.1046C18.9175 63.4239 18.7037 64.805 18.7037 66.1998C18.7037 73.7786 24.8876 79.9443 32.4888 79.9443C39.4578 79.9443 45.2319 74.76 46.1445 68.0571H82.1648C83.1936 68.0571 84.0277 67.2258 84.0277 66.1998C84.0277 64.9895 84.1489 63.7805 84.3881 62.6066C85.3831 57.7195 88.3549 53.6217 92.3653 51.0697L94.2636 54.8552C90.6358 57.3337 88.2501 61.4937 88.2501 66.1998C88.2501 73.7786 94.434 79.9443 102.035 79.9443C109.636 79.9443 115.82 73.7786 115.82 66.1998C115.82 58.621 109.636 52.4552 102.035 52.4552ZM40.4369 34.3769H56.3333C57.4974 34.3769 58.4445 35.3212 58.4445 36.4819C58.4445 37.6426 57.4974 38.5869 56.3333 38.5869H40.4369C39.2728 38.5869 38.3257 37.6426 38.3257 36.4819C38.3257 35.3212 39.2728 34.3769 40.4369 34.3769ZM4.54601 4.78283C4.54601 4.71473 4.60165 4.65901 4.6702 4.65901H32.4888C32.5573 4.65901 32.613 4.71473 32.613 4.78283V8.86904H4.54601V4.78283ZM4.6702 32.6433C4.60165 32.6433 4.54601 32.5876 4.54601 32.5195V12.5838H32.613V32.5195C32.613 32.5876 32.5573 32.6433 32.4888 32.6433H4.6702ZM13.5818 38.5869C12.9661 38.5869 12.4572 38.0874 12.4475 37.4735C12.4425 37.1676 12.5588 36.8791 12.7741 36.6612C12.9256 36.5081 13.1139 36.4066 13.3183 36.3581L34.6032 36.364C34.6025 36.4034 34.6003 36.4423 34.6003 36.4819C34.6003 37.2241 34.7418 37.9336 34.9969 38.5869H13.5818ZM18.341 58.3919C18.3401 58.3919 18.3391 58.3919 18.3381 58.3919C17.7462 58.3919 17.3945 58.0608 17.2375 57.8632C16.9586 57.512 16.8595 57.0553 16.9653 56.6101C18.3381 50.8398 25.4842 42.3016 36.4629 42.3016C44.9855 42.3016 48.1616 50.4228 48.1616 55.5419C48.1616 56.9303 47.3928 58.3374 45.9234 58.3401L18.341 58.3919ZM34.6 66.1998C34.6 67.3605 33.6529 68.3048 32.4888 68.3048C31.3246 68.3048 30.3775 67.3605 30.3775 66.1998C30.3775 65.039 31.3246 64.0947 32.4888 64.0947C33.6529 64.0947 34.6 65.039 34.6 66.1998ZM32.4888 76.2295C26.942 76.2295 22.4294 71.7303 22.4294 66.1998C22.4294 64.7795 22.7359 63.3808 23.3126 62.0972L28.3622 62.0878C27.3061 63.1415 26.6518 64.5957 26.6518 66.1998C26.6518 69.4088 29.2703 72.0195 32.4888 72.0195C35.7073 72.0195 38.3257 69.4088 38.3257 66.1998C38.3257 64.5878 37.6648 63.1272 36.5992 62.0722L41.6493 62.0625C42.2362 63.3553 42.5482 64.7664 42.5482 66.1995C42.5482 71.7303 38.0356 76.2295 32.4888 76.2295ZM80.7369 61.8676C80.571 62.6817 80.4522 63.5091 80.3809 64.3424H46.1467C46.0406 63.5658 45.8678 62.8005 45.6318 62.0554L45.9299 62.0549C49.326 62.0487 51.887 59.2487 51.887 55.5419C51.887 51.5228 50.5455 47.45 48.2063 44.3683C47.6931 43.6922 47.0699 42.9829 46.3255 42.3016H52.4834V50.3502C52.4834 55.744 56.8847 60.1324 62.2944 60.1324H80.1778C80.5906 60.1324 80.9708 59.9969 81.2796 59.7703C81.0662 60.455 80.8822 61.1534 80.7369 61.8676ZM88.1259 24.4709H90.2372V28.681H88.1259C86.9618 28.681 86.0147 27.7367 86.0147 26.5759C86.0147 25.4152 86.9618 24.4709 88.1259 24.4709ZM82.0406 57.7086V36.9495C82.0406 36.1471 82.4877 35.4257 83.2078 35.0666L84.1136 34.6149L90.6932 47.7351C86.8895 50.0632 83.8304 53.531 82.0406 57.7086ZM102.035 76.2295C96.4884 76.2295 91.9758 71.7303 91.9758 66.1998C91.9758 60.6693 96.4884 56.17 102.035 56.17C107.582 56.17 112.095 60.6693 112.095 66.1998C112.095 71.7303 107.582 76.2295 102.035 76.2295Z" fill="#D6DB46"/>
<path d="M101.82 60.9443C98.5119 60.9443 95.8203 63.4116 95.8203 66.4443C95.8203 69.477 98.5119 71.9443 101.82 71.9443C105.129 71.9443 107.82 69.477 107.82 66.4443C107.82 63.4116 105.129 60.9443 101.82 60.9443ZM101.82 68.4336C100.624 68.4336 99.6501 67.5412 99.6501 66.4443C99.6501 65.3473 100.624 64.4549 101.82 64.4549C103.017 64.4549 103.991 65.3473 103.991 66.4443C103.991 67.5412 103.017 68.4336 101.82 68.4336Z" fill="#D6DB46"/>
</svg>
