<svg width="103" height="78" viewBox="0 0 103 78" fill="none" xmlns="http://www.w3.org/2000/svg">
<path d="M0.820312 65.9558H6.2961C10.443 65.9558 13.2769 63.3789 13.2769 59.4257C13.2769 56.5608 11.2115 54.7522 7.75311 54.7522H3.06186L0.820312 65.9558ZM3.84641 63.8271L5.23937 56.8809H7.46491C9.57837 56.8809 10.6511 57.9052 10.6511 59.5697C10.6511 62.0025 9.06602 63.8271 6.37615 63.8271H3.84641Z" fill="#5C5C5C"/>
<path d="M21.8456 57.345L21.6214 58.5134C21.0611 57.6171 20.0684 57.217 18.8195 57.217C16.1617 57.217 14.0642 59.3296 14.0642 62.2266C14.0642 64.6753 15.7774 66.0838 17.7788 66.0838C18.8355 66.0838 19.7321 65.7317 20.4206 65.1075L20.2605 65.9558H22.6301L24.3433 57.345H21.8456ZM18.5473 64.0191C17.2985 64.0191 16.578 63.2829 16.578 62.1145C16.578 60.434 17.6347 59.2816 19.1077 59.2816C20.3566 59.2816 21.0771 60.0179 21.0771 61.1862C21.0771 62.8668 20.0203 64.0191 18.5473 64.0191Z" fill="#5C5C5C"/>
<path d="M34.2931 61.0102C34.2931 58.7054 32.708 57.217 30.1943 57.217C27.2002 57.217 25.1187 59.3456 25.1187 62.2266C25.1187 64.5633 26.8319 66.0838 29.5218 66.0838C30.8347 66.0838 32.1316 65.7317 33.1243 64.9314L32.0836 63.2829C31.4911 63.7951 30.6586 64.0832 29.778 64.0832C28.353 64.0832 27.6325 63.491 27.5524 62.3226H34.149C34.229 61.9225 34.2931 61.4743 34.2931 61.0102ZM30.0822 59.0896C31.235 59.0896 32.0035 59.7298 32.0035 60.8661H27.7285C28.0648 59.7938 28.8813 59.0896 30.0822 59.0896Z" fill="#5C5C5C"/>
<path d="M48.1928 65.9558H50.7866L48.0327 54.7522H45.4709L38.2179 65.9558H40.9878L42.4449 63.555H47.6645L48.1928 65.9558ZM43.6457 61.5864L46.2875 57.265L47.2322 61.5864H43.6457Z" fill="#5C5C5C"/>
<path d="M51.7893 65.9558H54.287L56.6567 54.08H54.1589L51.7893 65.9558Z" fill="#5C5C5C"/>
<path d="M60.4798 58.3693L60.688 57.345H58.3183L56.6051 65.9558H59.1029L59.9354 61.7944C60.2557 60.1779 61.2003 59.4897 62.6733 59.4897C62.8815 59.4897 63.0256 59.5057 63.2497 59.5217L63.698 57.217C62.3051 57.217 61.2484 57.5371 60.4798 58.3693Z" fill="#5C5C5C"/>
<path d="M66.8163 56.1446C67.809 56.1446 68.4815 55.5204 68.4815 54.6081C68.4815 53.9039 67.8891 53.3597 67.0085 53.3597C66.0158 53.3597 65.3593 54.016 65.3593 54.8482C65.3593 55.5684 65.9357 56.1446 66.8163 56.1446ZM63.438 65.9558H65.9197L67.6329 57.345H65.1512L63.438 65.9558Z" fill="#5C5C5C"/>
<path d="M76.4519 57.345L76.1797 58.7535C75.6513 57.6651 74.5465 57.217 73.2657 57.217C70.5118 57.217 68.4623 59.2816 68.4623 61.9225C68.4623 64.1792 70.1435 65.5396 72.273 65.5396C73.3297 65.5396 74.2263 65.2035 74.8988 64.5793L74.8347 64.9474C74.5305 66.4039 73.746 67.1721 72.0168 67.1721C70.8 67.1721 69.6632 66.804 68.9907 66.2438L67.8059 68.0524C68.8146 68.7887 70.2236 69.1888 71.9047 69.1888C74.8828 69.1888 76.7561 67.8284 77.4125 64.5153L78.8375 57.345H76.4519ZM72.9454 63.491C71.7126 63.491 70.9761 62.8348 70.9761 61.7944C70.9761 60.322 72.0328 59.2816 73.5058 59.2816C74.7387 59.2816 75.4432 59.9378 75.4432 60.9782C75.4432 62.4506 74.4025 63.491 72.9454 63.491Z" fill="#5C5C5C"/>
<path d="M86.1737 57.217C85.197 57.217 84.2684 57.5051 83.5159 58.1293L84.3164 54.08H81.8187L79.4491 65.9558H81.9468L82.8114 61.5864C83.1156 60.0819 83.9962 59.3777 85.2611 59.3777C86.2538 59.3777 86.7341 59.8738 86.7341 60.7541C86.7341 60.9302 86.7181 61.1382 86.6701 61.3463L85.7414 65.9558H88.2392L89.1998 61.1862C89.2799 60.8181 89.3119 60.482 89.3119 60.1619C89.3119 58.2413 88.047 57.217 86.1737 57.217Z" fill="#5C5C5C"/>
<path d="M94.602 59.4577H96.7475L97.1318 57.5371H94.9863L95.4026 55.4404H92.9049L92.4886 57.5371H91.1597L90.7754 59.4577H92.1043L91.4158 62.9308C91.3678 63.1869 91.3358 63.443 91.3358 63.683C91.3358 65.1875 92.4245 66.0838 94.0257 66.0838C94.7782 66.0838 95.5467 65.9558 96.1711 65.5716L95.8029 63.7951C95.4827 63.9871 95.1304 64.0992 94.7942 64.0992C94.1697 64.0992 93.8815 63.7951 93.8815 63.2669C93.8815 63.1549 93.8815 63.0428 93.9136 62.9148L94.602 59.4577Z" fill="#5C5C5C"/>
<path d="M98.4058 62.0665H100.391L102.361 54.7522H99.3825L98.4058 62.0665ZM98.8221 66.0838C99.7187 66.0838 100.423 65.3956 100.423 64.5153C100.423 63.7791 99.8148 63.2029 98.9662 63.2029C98.0536 63.2029 97.3491 63.8431 97.3491 64.7394C97.3491 65.4756 97.9575 66.0838 98.8221 66.0838Z" fill="#5C5C5C"/>
<path d="M30.4114 72.1879L30.5019 71.7423H27.1587L26.1836 76.6155H26.692L27.103 74.5479H29.6313L29.7218 74.1024H27.1935L27.5766 72.1879H30.4114Z" fill="#898989"/>
<path d="M31.9941 76.6504C33.2269 76.6504 34.1114 75.7244 34.1114 74.4713C34.1114 73.5245 33.4637 72.9258 32.4468 72.9258C31.214 72.9258 30.3294 73.8517 30.3294 75.0979C30.3294 76.0377 30.9772 76.6504 31.9941 76.6504ZM32.0289 76.2118C31.2627 76.2118 30.8239 75.7941 30.8239 75.077C30.8239 74.0815 31.4996 73.3575 32.412 73.3575C33.1781 73.3575 33.6169 73.7821 33.6169 74.4992C33.6169 75.4947 32.9413 76.2118 32.0289 76.2118Z" fill="#898989"/>
<path d="M36.3608 76.6504C37.5936 76.6504 38.4782 75.7244 38.4782 74.4713C38.4782 73.5245 37.8305 72.9258 36.8136 72.9258C35.5807 72.9258 34.6962 73.8517 34.6962 75.0979C34.6962 76.0377 35.3439 76.6504 36.3608 76.6504ZM36.3957 76.2118C35.6295 76.2118 35.1907 75.7941 35.1907 75.077C35.1907 74.0815 35.8663 73.3575 36.7787 73.3575C37.5449 73.3575 37.9837 73.7821 37.9837 74.4992C37.9837 75.4947 37.3081 76.2118 36.3957 76.2118Z" fill="#898989"/>
<path d="M42.9773 71.45L42.5246 73.7195C42.3087 73.2113 41.8281 72.9258 41.1316 72.9258C39.9405 72.9258 39.0629 73.8448 39.0629 75.0979C39.0629 76.0656 39.7177 76.6504 40.6579 76.6504C41.25 76.6504 41.7375 76.4206 42.0858 76.0377L41.9674 76.6155H42.441L43.4718 71.45H42.9773ZM40.7624 76.2118C39.9963 76.2118 39.5575 75.7941 39.5575 75.077C39.5575 74.0815 40.2331 73.3575 41.1455 73.3575C41.9116 73.3575 42.3504 73.7821 42.3504 74.4992C42.3504 75.4947 41.6748 76.2118 40.7624 76.2118Z" fill="#898989"/>
<path d="M49.5206 71.45L49.0679 73.7195C48.852 73.2113 48.3714 72.9258 47.6749 72.9258C46.4839 72.9258 45.6063 73.8448 45.6063 75.0979C45.6063 76.0656 46.261 76.6504 47.2013 76.6504C47.7933 76.6504 48.2809 76.4206 48.6291 76.0377L48.5107 76.6155H48.9843L50.0152 71.45H49.5206ZM47.3057 76.2118C46.5396 76.2118 46.1008 75.7941 46.1008 75.077C46.1008 74.0815 46.7764 73.3575 47.6888 73.3575C48.455 73.3575 48.8938 73.7821 48.8938 74.4992C48.8938 75.4947 48.2182 76.2118 47.3057 76.2118Z" fill="#898989"/>
<path d="M53.8998 74.9239C53.9277 74.7846 53.9486 74.6315 53.9486 74.4783C53.9486 73.5037 53.3217 72.9258 52.3536 72.9258C51.1834 72.9258 50.3267 73.8448 50.3267 75.0909C50.3267 76.0517 50.9745 76.6504 52.0332 76.6504C52.6043 76.6504 53.1545 76.4485 53.4958 76.1073L53.2729 75.7523C53.0013 76.0377 52.5625 76.2118 52.075 76.2118C51.2322 76.2118 50.8143 75.801 50.8143 75.07C50.8143 75.0213 50.8143 74.9726 50.8212 74.9239H53.8998ZM52.3396 73.3435C53.0222 73.3435 53.4889 73.7264 53.4889 74.4226C53.4889 74.4644 53.4889 74.5061 53.4819 74.5549H50.87C51.0511 73.8239 51.6013 73.3435 52.3396 73.3435Z" fill="#898989"/>
<path d="M54.5651 76.6155H55.0596L56.0904 71.45H55.5959L54.5651 76.6155Z" fill="#898989"/>
<path d="M57.6196 72.1531C57.8425 72.1531 58.0097 71.986 58.0097 71.7632C58.0097 71.5961 57.8634 71.45 57.6684 71.45C57.4455 71.45 57.2853 71.617 57.2853 71.8259C57.2853 71.9999 57.4246 72.1531 57.6196 72.1531ZM56.4356 76.6155H56.9301L57.6544 72.9537H57.1599L56.4356 76.6155Z" fill="#898989"/>
<path d="M61.6005 72.9537L59.6016 76.0795L58.8424 72.9537H58.3479L59.2533 76.6155H59.7618L62.1159 72.9537H61.6005Z" fill="#898989"/>
<path d="M65.5173 74.9239C65.5451 74.7846 65.566 74.6315 65.566 74.4783C65.566 73.5037 64.9392 72.9258 63.971 72.9258C62.8009 72.9258 61.9442 73.8448 61.9442 75.0909C61.9442 76.0517 62.592 76.6504 63.6506 76.6504C64.2218 76.6504 64.772 76.4485 65.1133 76.1073L64.8904 75.7523C64.6188 76.0377 64.18 76.2118 63.6924 76.2118C62.8497 76.2118 62.4318 75.801 62.4318 75.07C62.4318 75.0213 62.4318 74.9726 62.4387 74.9239H65.5173ZM63.9571 73.3435C64.6397 73.3435 65.1063 73.7264 65.1063 74.4226C65.1063 74.4644 65.1063 74.5061 65.0994 74.5549H62.4875C62.6686 73.8239 63.2188 73.3435 63.9571 73.3435Z" fill="#898989"/>
<path d="M67.2552 73.622L67.3805 72.9537H66.9069L66.1825 76.6155H66.6771L67.0462 74.7568C67.2273 73.8448 67.7497 73.3992 68.5298 73.3992C68.5855 73.3992 68.6203 73.4062 68.6691 73.4062L68.7596 72.9258C68.0631 72.9258 67.5825 73.1416 67.2552 73.622Z" fill="#898989"/>
<path d="M72.3815 72.9537L70.3826 76.0725L69.6234 72.9537H69.1219L70.0343 76.5947L69.7766 76.9845C69.4911 77.4301 69.2473 77.5763 68.9338 77.5763C68.6553 77.5763 68.4463 77.4788 68.2861 77.3117L68.0214 77.6737C68.2025 77.8826 68.5508 78.0009 68.8921 78.0009C69.4214 78.0009 69.7627 77.7851 70.2154 77.0889L72.89 72.9537H72.3815Z" fill="#898989"/>
<path d="M75.7436 76.6504C76.7188 76.6504 77.3665 76.2327 77.3665 75.5086C77.3665 74.2903 75.2909 74.8682 75.2909 74.0188C75.2909 73.622 75.674 73.3505 76.3496 73.3505C76.7257 73.3505 77.1367 73.448 77.4222 73.6638L77.6312 73.267C77.3526 73.0581 76.8581 72.9258 76.3914 72.9258C75.4302 72.9258 74.8034 73.3714 74.8034 74.0676C74.8034 75.3067 76.879 74.7359 76.879 75.5643C76.879 75.9751 76.4959 76.2187 75.7924 76.2187C75.2909 76.2187 74.8034 76.0586 74.5248 75.815L74.288 76.2048C74.5735 76.4624 75.1447 76.6504 75.7436 76.6504Z" fill="#898989"/>
<path d="M81.6239 74.9239C81.6518 74.7846 81.6727 74.6315 81.6727 74.4783C81.6727 73.5037 81.0458 72.9258 80.0777 72.9258C78.9076 72.9258 78.0509 73.8448 78.0509 75.0909C78.0509 76.0517 78.6986 76.6504 79.7573 76.6504C80.3284 76.6504 80.8787 76.4485 81.22 76.1073L80.9971 75.7523C80.7255 76.0377 80.2867 76.2118 79.7991 76.2118C78.9563 76.2118 78.5384 75.801 78.5384 75.07C78.5384 75.0213 78.5384 74.9726 78.5454 74.9239H81.6239ZM80.0638 73.3435C80.7464 73.3435 81.213 73.7264 81.213 74.4226C81.213 74.4644 81.213 74.5061 81.206 74.5549H78.5942C78.7752 73.8239 79.3255 73.3435 80.0638 73.3435Z" fill="#898989"/>
<path d="M83.3618 73.622L83.4872 72.9537H83.0136L82.2892 76.6155H82.7837L83.1529 74.7568C83.334 73.8448 83.8563 73.3992 84.6364 73.3992C84.6922 73.3992 84.727 73.4062 84.7757 73.4062L84.8663 72.9258C84.1698 72.9258 83.6892 73.1416 83.3618 73.622Z" fill="#898989"/>
<path d="M88.4813 72.9537L86.4823 76.0795L85.7231 72.9537H85.2286L86.134 76.6155H86.6425L88.9967 72.9537H88.4813Z" fill="#898989"/>
<path d="M90.1458 72.1531C90.3687 72.1531 90.5359 71.986 90.5359 71.7632C90.5359 71.5961 90.3896 71.45 90.1946 71.45C89.9717 71.45 89.8115 71.617 89.8115 71.8259C89.8115 71.9999 89.9508 72.1531 90.1458 72.1531ZM88.9618 76.6155H89.4563L90.1807 72.9537H89.6861L88.9618 76.6155Z" fill="#898989"/>
<path d="M92.49 76.6504C93.1168 76.6504 93.6949 76.3928 94.0223 75.9542L93.6671 75.6827C93.4024 76.0308 92.9775 76.2118 92.5109 76.2118C91.7308 76.2118 91.292 75.7941 91.292 75.077C91.292 74.0815 91.9676 73.3575 92.887 73.3575C93.3885 73.3575 93.7437 73.5385 93.9526 73.9005L94.3705 73.6568C94.0989 73.1695 93.5974 72.9258 92.9288 72.9258C91.682 72.9258 90.7975 73.8448 90.7975 75.0979C90.7975 76.0377 91.4452 76.6504 92.49 76.6504Z" fill="#898989"/>
<path d="M98.2339 74.9239C98.2618 74.7846 98.2827 74.6315 98.2827 74.4783C98.2827 73.5037 97.6559 72.9258 96.6877 72.9258C95.5176 72.9258 94.6609 73.8448 94.6609 75.0909C94.6609 76.0517 95.3086 76.6504 96.3673 76.6504C96.9384 76.6504 97.4887 76.4485 97.83 76.1073L97.6071 75.7523C97.3355 76.0377 96.8967 76.2118 96.4091 76.2118C95.5663 76.2118 95.1484 75.801 95.1484 75.07C95.1484 75.0213 95.1484 74.9726 95.1554 74.9239H98.2339ZM96.6738 73.3435C97.3564 73.3435 97.823 73.7264 97.823 74.4226C97.823 74.4644 97.823 74.5061 97.816 74.5549H95.2042C95.3852 73.8239 95.9355 73.3435 96.6738 73.3435Z" fill="#898989"/>
<path d="M99.0037 76.6504C99.2057 76.6504 99.3868 76.4833 99.3868 76.2535C99.3868 76.0447 99.2335 75.8915 99.0316 75.8915C98.8226 75.8915 98.6415 76.0586 98.6415 76.2883C98.6415 76.4902 98.8017 76.6504 99.0037 76.6504Z" fill="#898989"/>
<path d="M100.48 76.6504C100.682 76.6504 100.863 76.4833 100.863 76.2535C100.863 76.0447 100.71 75.8915 100.508 75.8915C100.299 75.8915 100.118 76.0586 100.118 76.2883C100.118 76.4902 100.278 76.6504 100.48 76.6504Z" fill="#898989"/>
<path d="M101.956 76.6504C102.158 76.6504 102.339 76.4833 102.339 76.2535C102.339 76.0447 102.186 75.8915 101.984 75.8915C101.775 75.8915 101.593 76.0586 101.593 76.2883C101.593 76.4902 101.754 76.6504 101.956 76.6504Z" fill="#898989"/>
<path fill-rule="evenodd" clip-rule="evenodd" d="M66.0935 9.12205C67.0773 8.06598 67.9018 6.96051 68.0857 6.0773C68.6004 3.60588 67.03 1.21593 64.5523 0.69992C62.0746 0.183911 59.6806 1.74824 59.1659 4.21967C58.934 5.33314 59.4946 7.17695 60.1806 8.86699C60.1095 8.91639 60.0339 8.96124 59.953 9.00058C52.6385 9.61912 47.5348 11.9748 45.8973 13.0753C45.3003 13.1339 44.4706 13.0746 43.5596 13.0095C41.1814 12.8395 38.2493 12.63 37.4561 14.3749C36.3541 16.799 38.7333 16.8401 40.6809 16.8738H40.6809C41.4429 16.8869 42.1389 16.8989 42.5344 17.0521C44.1033 17.6598 43.7535 19.5383 42.5326 20.2931C41.329 21.0371 39.4644 20.9272 37.8571 20.8324C37.3537 20.8028 36.8755 20.7746 36.4508 20.7746H22.0408C21.694 20.7746 21.261 20.7446 20.7823 20.7115H20.7823C18.7315 20.5697 15.8393 20.3696 15.2606 22.2152C14.5078 24.6154 17.2569 24.5266 18.9945 24.4705L18.9946 24.4705C19.2322 24.4628 19.4509 24.4557 19.6392 24.4557H31.6475C31.801 24.4557 31.9671 24.4517 32.1412 24.4476L32.1414 24.4476C33.4398 24.4163 35.1856 24.3743 35.4937 25.8964C35.8802 27.8066 33.6462 28.2968 32.2879 28.297H24.4425L24.3071 28.2968C23.1415 28.2951 21.9096 28.2933 21.2176 29.4197C20.4966 30.5932 21.1309 32.0442 22.5212 32.1311C23.4126 32.1869 24.3207 32.1483 25.2297 32.1096H25.2298H25.2298C26.4182 32.059 27.6084 32.0083 28.7655 32.1684C29.6162 32.2862 30.4359 32.9756 30.3892 33.8988C30.307 35.5205 28.6406 35.9773 27.3245 35.9794H21.5605C21.3487 35.9794 21.1241 35.9696 20.8936 35.9595C20.1415 35.9266 19.3256 35.891 18.6809 36.1841C17.4951 36.7232 16.778 38.6433 18.0555 39.4991C18.631 39.8846 19.4051 39.8573 20.11 39.8324L20.1102 39.8324C20.2786 39.8264 20.443 39.8206 20.5998 39.8206H23.642C22.4855 41.0401 21.6963 43.4426 23.8027 44.2784C25.0328 44.7664 26.7678 44.649 28.3264 44.5435H28.3265H28.3265C28.9412 44.5019 29.5284 44.4621 30.0464 44.4621C30.2762 44.4621 30.5249 44.4764 30.7807 44.4911L30.7809 44.4911C31.3963 44.5265 32.053 44.5643 32.5869 44.4112C33.1384 44.2532 33.5904 43.3868 33.9932 42.615C34.2083 42.2028 34.4093 41.8175 34.6039 41.5814C36.0286 39.8523 38.3416 38.5719 40.6137 38.5433C42.8247 38.5153 44.8609 39.6886 45.9814 41.5812C46.1197 41.8149 46.227 42.2238 46.3414 42.6602C46.5419 43.4246 46.7645 44.2733 47.2147 44.4112C48.5747 44.828 50.4109 44.6939 52.0975 44.5706C52.8551 44.5153 53.5826 44.4621 54.2231 44.4621H64.15C64.653 44.4621 65.1792 44.4872 65.713 44.5126H65.7131H65.7132C66.8566 44.567 68.0351 44.623 69.0961 44.4384C69.6779 44.3371 70.0865 43.52 70.4482 42.7971C70.6243 42.445 70.7892 42.1152 70.9576 41.9013C72.1677 40.3635 73.7813 39.2619 75.6779 38.7768C79.5651 37.7827 83.052 40.5527 83.3633 44.4621H89.1272C89.3082 44.4621 89.4919 44.4667 89.6768 44.4714C90.5323 44.4929 91.4134 44.5151 92.1692 44.0833C94.6887 42.6439 93.9746 39.2049 91.0486 39.1804C92.9077 24.4751 80.9118 9.94051 66.0935 9.12205ZM63.31 6.66741C64.1427 6.84081 64.9553 6.32048 65.125 5.50521C65.2948 4.68995 64.7575 3.88849 63.9249 3.71509C63.0923 3.54169 62.2797 4.06202 62.1099 4.87728C61.9401 5.69254 62.4774 6.49401 63.31 6.66741ZM21.8814 16.8047C20.0047 16.2083 20.5675 13.7094 22.201 13.1966C23.0143 12.9413 24.026 12.9979 24.9692 13.0508L24.9692 13.0508C25.3437 13.0718 25.7074 13.0921 26.0436 13.0921C26.8538 13.0921 27.7524 13.0317 28.6815 12.9692C30.7445 12.8304 32.9581 12.6816 34.689 13.1616C36.4808 13.6584 35.8855 16.055 34.5293 16.6688C33.7262 17.0324 32.7259 16.9922 31.8001 16.955H31.8001C31.5269 16.9441 31.2602 16.9333 31.007 16.9333C30.1882 16.9333 29.2689 16.9964 28.3132 17.062L28.3132 17.062H28.3132C26.0992 17.214 23.6899 17.3794 21.8814 16.8047ZM10.5279 31.9767C8.61188 31.1286 9.96914 28.7294 11.4735 28.3816C13.2093 27.9804 17.1738 27.7955 18.838 28.4401C20.6649 29.1475 19.9344 31.539 18.3583 32.0337C17.2189 32.3914 15.7446 32.2973 14.3815 32.2102C13.8085 32.1735 13.2551 32.1382 12.7544 32.1382C12.5935 32.1382 12.4237 32.145 12.2497 32.152C11.6658 32.1755 11.0344 32.2009 10.5279 31.9767ZM34.4163 45.9026C34.7464 43.1145 36.8588 40.8109 39.653 40.3711C43.2206 39.8094 45.7897 42.9946 44.8115 46.3827C44.1068 48.823 41.9543 50.4541 39.4929 50.7955C36.6783 51.1859 34.077 48.767 34.4163 45.9026ZM71.0869 45.2624C71.5035 42.7681 73.7012 40.7659 76.1583 40.3712C79.5731 39.8227 82.2574 42.6868 81.4932 46.0626C80.9211 48.5898 78.6824 50.4597 76.1583 50.8161C72.8654 51.2811 70.5686 48.3648 71.0869 45.2624Z" fill="#D6DB46"/>
</svg>
