<svg width="87" height="79" viewBox="0 0 87 79" fill="none" xmlns="http://www.w3.org/2000/svg">
<path d="M57.9365 44.7968L85.2845 63.9735L72.8641 67.6432L64.5149 77.544L57.9365 44.7968Z" stroke="#D6DB46" stroke-width="2" stroke-linecap="round" stroke-linejoin="round"/>
<path d="M26.7994 18.777C30.0104 15.6606 34.2794 13.9443 38.8203 13.9443C43.3612 13.9443 47.6303 15.6606 50.8412 18.777C54.052 21.8934 55.8203 26.037 55.8203 30.4443C55.8203 34.8516 54.052 38.9951 50.8412 42.1115C47.6303 45.228 43.3612 46.9443 38.8203 46.9443C34.2794 46.9443 30.0104 45.228 26.7994 42.1115C23.5886 38.9951 21.8203 34.8516 21.8203 30.4443C21.8203 26.037 23.5886 21.8934 26.7994 18.777ZM38.8203 45.8369C47.565 45.8369 54.6794 38.9318 54.6794 30.4443C54.6794 21.9567 47.565 15.0517 38.8203 15.0517C30.0756 15.0517 22.9613 21.9567 22.9613 30.4443C22.9613 38.9318 30.0756 45.8369 38.8203 45.8369Z" fill="#D6DB46"/>
<path d="M33.8052 24.7753C33.6925 24.888 33.5448 24.9443 33.3972 24.9443C33.2496 24.9443 33.1019 24.888 32.9893 24.7753C32.764 24.55 32.764 24.1847 32.9893 23.9594L34.8355 22.1132C35.0608 21.888 35.4261 21.888 35.6513 22.1132C35.8766 22.3386 35.8766 22.7038 35.6513 22.9291L33.8052 24.7753Z" fill="#D6DB46"/>
<path d="M32.9696 28.9498L38.9502 22.1148C39.1493 21.8874 39.472 21.8874 39.671 22.1148C39.8701 22.3424 39.8701 22.7112 39.671 22.9387L33.6904 29.7737C33.5909 29.8874 33.4604 29.9443 33.33 29.9443C33.1996 29.9443 33.0691 29.8874 32.9696 29.7737C32.7705 29.5461 32.7705 29.1773 32.9696 28.9498Z" fill="#D6DB46"/>
<path d="M40.9297 23.097C41.1334 22.8934 41.4638 22.8934 41.6675 23.097C41.8713 23.3009 41.8713 23.6312 41.6675 23.8349L34.7109 30.7915C34.6091 30.8934 34.4755 30.9443 34.342 30.9443C34.2085 30.9443 34.075 30.8934 33.9731 30.7915C33.7694 30.5877 33.7694 30.2574 33.9731 30.0536L40.9297 23.097Z" fill="#D6DB46"/>
<path d="M42.9297 26.097C43.1334 25.8934 43.4638 25.8934 43.6675 26.097C43.8713 26.3009 43.8713 26.6312 43.6675 26.8349L36.7109 33.7915C36.6091 33.8934 36.4755 33.9443 36.342 33.9443C36.2085 33.9443 36.075 33.8934 35.9731 33.7915C35.7694 33.5877 35.7694 33.2574 35.9731 33.0536L42.9297 26.097Z" fill="#D6DB46"/>
<path d="M42.8976 29.1025C43.1087 28.8915 43.451 28.8915 43.662 29.1025C43.8731 29.3137 43.8731 29.6559 43.662 29.867L36.743 36.786C36.6375 36.8915 36.4991 36.9443 36.3608 36.9443C36.2225 36.9443 36.0842 36.8915 35.9786 36.786C35.7675 36.5748 35.7675 36.2326 35.9786 36.0215L42.8976 29.1025Z" fill="#D6DB46"/>
<path d="M42.8355 31.1132C43.0608 30.888 43.4261 30.888 43.6513 31.1132C43.8766 31.3386 43.8766 31.7038 43.6513 31.9291L37.8051 37.7754C37.6925 37.888 37.5448 37.9443 37.3972 37.9443C37.2496 37.9443 37.1019 37.888 36.9893 37.7754C36.764 37.55 36.764 37.1847 36.9893 36.9594L42.8355 31.1132Z" fill="#D6DB46"/>
<path d="M42.8892 35.104C43.1022 34.891 43.4476 34.891 43.6605 35.104C43.8736 35.3171 43.8736 35.6624 43.6605 35.8754L40.7514 38.7846C40.645 38.891 40.5053 38.9443 40.3658 38.9443C40.2262 38.9443 40.0866 38.891 39.9801 38.7846C39.7671 38.5715 39.7671 38.2262 39.9801 38.0131L42.8892 35.104Z" fill="#D6DB46"/>
<path d="M29.9617 30.4816C30.0734 30.4816 30.183 30.49 30.2901 30.5062C29.7587 29.1963 29.572 27.7643 29.7604 26.3101C30.2538 22.5013 33.4539 19.426 37.3697 18.9977C39.8429 18.7273 42.3167 19.4918 44.1564 21.0953C45.5044 22.2702 46.4308 23.8181 46.8308 25.5073C47.471 25.4029 48.1389 25.4361 48.7905 25.6083C50.2243 25.9873 51.3452 26.9687 51.7889 28.2336C51.866 28.4535 51.7983 28.6971 51.6177 28.849C51.1393 29.2512 50.5678 29.5299 49.9506 29.6773C49.9954 29.7178 50.0405 29.7579 50.0839 29.8002C51.1345 30.8244 51.6061 32.2193 51.3456 33.5317C51.3002 33.7599 51.1172 33.9383 50.8832 33.9824C50.6391 34.0284 50.3921 34.0511 50.1452 34.0511C49.0305 34.0511 47.9155 33.5908 47.0556 32.7525C47.055 32.7519 47.0545 32.7513 47.0539 32.7507V35.3021C47.0539 37.041 46.3693 38.6851 45.1263 39.9317C43.8859 41.1757 42.2245 41.8894 40.4484 41.9415C40.3833 41.9433 40.3182 41.9443 40.2531 41.9443C38.7591 41.9443 37.2827 41.4435 36.0759 40.5237C34.9382 39.6564 34.1082 38.4679 33.7043 37.1441C33.2797 37.487 32.7351 37.6934 32.142 37.6934C30.7895 37.6934 29.6892 36.6206 29.6892 35.3021C29.6892 35.0757 29.7223 34.8567 29.7829 34.649C28.6856 34.5601 27.8203 33.6615 27.8203 32.5692C27.8203 31.4182 28.7809 30.4816 29.9617 30.4816ZM47.0537 30.6574C47.2175 31.132 47.5015 31.5768 47.8814 31.9473C48.5355 32.5849 49.4098 32.9331 50.2447 32.9093C50.2704 32.0958 49.9121 31.2431 49.2579 30.6053C48.6392 30.0021 47.8427 29.6607 47.0537 29.6428V30.6574ZM47.0538 27.4071V28.1515C47.3356 28.3211 47.6442 28.4513 47.9753 28.5389C48.8683 28.7747 49.8052 28.6539 50.5163 28.2275C50.1236 27.5092 49.3777 26.9432 48.4848 26.7071C47.9938 26.5775 47.4933 26.5537 47.0165 26.6325C47.0408 26.889 47.0538 27.1474 47.0538 27.4071ZM33.4525 33.2824C34.1384 33.7068 34.5949 34.4532 34.5949 35.3021C34.5949 35.4611 34.5785 35.6163 34.548 35.7667C34.6114 35.9846 34.6696 36.2061 34.7188 36.4275L34.7314 36.4821C35.3248 39.0231 37.7673 40.8845 40.4132 40.8032C41.8845 40.7602 43.2607 40.1688 44.2887 39.138C45.3186 38.1052 45.8857 36.7429 45.8857 35.3021V30.7602C45.8856 30.7527 45.8856 30.7453 45.8857 30.7378V28.4864C45.8843 28.464 45.8844 28.4415 45.8857 28.4191V27.4071C45.8857 25.3245 44.9717 23.3333 43.3778 21.9441C41.7622 20.5359 39.6746 19.8914 37.4999 20.1293C34.1134 20.4997 31.3458 23.1591 30.9192 26.4528C30.6555 28.488 31.2376 30.4719 32.5581 32.0393C32.8809 32.4222 33.1773 32.8323 33.4394 33.2583C33.4443 33.2662 33.4482 33.2744 33.4525 33.2824ZM32.142 36.5547C32.8504 36.5547 33.4268 35.9928 33.4268 35.3021C33.4268 34.6114 32.8504 34.0495 32.142 34.0495C31.4336 34.0495 30.8572 34.6114 30.8572 35.3021C30.8572 35.9928 31.4336 36.5547 32.142 36.5547ZM29.9617 33.5181C30.4984 33.5181 30.935 33.0925 30.935 32.5692C30.935 32.046 30.4984 31.6203 29.9617 31.6203C29.4249 31.6203 28.9883 32.046 28.9883 32.5692C28.9883 33.0925 29.4249 33.5181 29.9617 33.5181Z" fill="#D6DB46"/>
<path d="M32.2026 38.3455C32.2831 37.9871 32.4789 37.8419 32.64 38.021C32.8011 38.2003 32.8664 38.6361 32.7858 38.9947L32.438 40.543C32.3809 40.7973 32.2658 40.9443 32.1462 40.9443C32.0972 40.9443 32.0474 40.9195 32.0006 40.8674C31.8396 40.6881 31.7743 40.2523 31.8548 39.8937L32.2026 38.3455Z" fill="#D6DB46"/>
<path d="M46.823 37.9443C47.3738 37.9443 47.8203 38.1681 47.8203 38.4443C47.8203 38.7205 47.3738 38.9443 46.823 38.9443H46.8123C46.2615 38.9443 45.8203 38.7205 45.8203 38.4443C45.8203 38.1681 46.2722 37.9443 46.823 37.9443Z" fill="#D6DB46"/>
<path d="M28.2637 29.0398C28.391 28.9124 28.5975 28.9124 28.7248 29.0398C28.8522 29.1672 28.8522 29.3736 28.7248 29.501L28.377 29.8488C28.3133 29.9124 28.2298 29.9443 28.1464 29.9443C28.063 29.9443 27.9795 29.9124 27.9158 29.8488C27.7885 29.7214 27.7885 29.515 27.9158 29.3876L28.2637 29.0398Z" fill="#D6DB46"/>
<path d="M26.823 26.9443C27.3738 26.9443 27.8203 27.3919 27.8203 27.9443C27.8203 28.4967 27.3738 28.9443 26.823 28.9443H26.8123C26.2615 28.9443 25.8203 28.4967 25.8203 27.9443C25.8203 27.3919 26.2722 26.9443 26.823 26.9443Z" fill="#D6DB46"/>
<path d="M28.3203 26.9443C28.0442 26.9443 27.8203 26.7983 27.8203 26.6182V26.2704C27.8203 26.0902 28.0442 25.9443 28.3203 25.9443C28.5964 25.9443 28.8203 26.0902 28.8203 26.2704V26.6182C28.8203 26.7983 28.5964 26.9443 28.3203 26.9443Z" fill="#D6DB46"/>
<path d="M48.0006 34.9955C48.1616 34.8759 48.3575 34.9729 48.438 35.2119L48.7858 36.2439C48.8664 36.4829 48.8011 36.7735 48.64 36.8931C48.5932 36.9278 48.5435 36.9443 48.4945 36.9443C48.3749 36.9443 48.2597 36.8462 48.2026 36.6768L47.8548 35.6447C47.7743 35.4056 47.8396 35.115 48.0006 34.9955Z" fill="#D6DB46"/>
<path d="M47.6735 22.6768C47.5021 22.8463 47.1568 22.9443 46.7979 22.9443C46.6509 22.9443 46.5017 22.9278 46.3612 22.8931C45.8781 22.7735 45.6822 22.483 45.9238 22.2439L46.9671 21.2118C47.2087 20.9728 47.7962 20.876 48.2794 20.9954C48.7626 21.115 48.9585 21.4055 48.7168 21.6446L47.6735 22.6768Z" fill="#D6DB46"/>
<path d="M69.5703 0.944275H7.07036C3.62021 0.948322 0.824414 3.70685 0.820312 7.111V58.9098C0.824414 62.314 3.62021 65.0725 7.07036 65.0765H27.0703V67.5444H22.0704C19.3103 67.5476 17.0735 69.7544 17.0704 72.4777V73.711C17.0704 74.3922 17.63 74.9443 18.3204 74.9443H58.3204C59.0108 74.9443 59.5704 74.3922 59.5704 73.711V72.4777C59.5671 69.7544 57.3305 67.5474 54.5704 67.5444H49.5703V65.0765H69.5703C73.0204 65.0725 75.8162 62.314 75.8203 58.9098V7.111C75.8162 3.70685 73.0204 0.948322 69.5703 0.944275ZM54.5703 70.0111C55.9504 70.0124 57.0688 71.1161 57.0703 72.4778H19.5703C19.5716 71.1161 20.6902 70.0126 22.0704 70.0111H54.5703ZM29.5704 67.5444V65.0777H47.0704V67.5444H29.5704ZM73.3203 58.9098C73.3181 60.9523 71.6404 62.6076 69.5703 62.6098H7.07036C5.00024 62.6076 3.32256 60.9523 3.32036 58.9098V55.2111H73.3204V58.9098H73.3203ZM73.3203 52.7444H3.32036V7.111C3.32256 5.06848 5.00024 3.41316 7.07036 3.41099H69.5704C71.6405 3.41316 73.3182 5.06848 73.3204 7.111V52.7444H73.3203Z" fill="#D6DB46"/>
</svg>
