<svg width="27" height="27" viewBox="0 0 27 27" fill="none" xmlns="http://www.w3.org/2000/svg">
<path d="M12.7524 24.4233L8.46667 26.3708C7.12738 26.9272 5.52024 26.3708 4.98453 24.9797C4.71667 24.7015 4.71667 24.1451 4.71667 23.5886L4.98453 18.859C4.98453 18.0244 4.71667 17.468 4.44881 16.9116L1.50238 13.0166C0.430955 11.9037 0.698812 10.2345 1.77024 9.12162C2.0381 8.8434 2.57381 8.56519 2.84167 8.56519L7.39524 7.45234C8.19881 7.17413 8.73453 6.89592 9.00238 6.06128L11.4131 1.8881C12.2167 0.497044 13.8238 0.218831 15.1631 1.05347C15.431 1.33168 15.9667 1.60989 15.9667 1.8881L18.3774 6.06128C18.6452 6.61771 19.4488 7.17413 19.9845 7.45234L24.5381 8.56519C26.1452 8.8434 27.2167 10.2345 26.681 11.9037C26.681 12.4602 26.4131 12.7384 26.1452 13.0166L23.1988 16.6333C22.6631 17.1898 22.3952 18.0244 22.6631 18.5808L22.931 23.3104C22.931 24.9797 21.8595 26.0926 20.5202 26.3708C19.9845 26.3708 19.7167 26.3708 19.181 26.0926L14.8952 24.1451C14.0917 24.1451 13.556 24.1451 12.7524 24.4233Z" fill="#D6DB46"/>
</svg>
